<?xml version="1.0" encoding="UTF-8"?>
<svg id="Layer_1" data-name="Layer 1" xmlns="http://www.w3.org/2000/svg" viewBox="0 0 352.52 342.54">
  <defs>
    <style>
      .cls-1, .cls-2, .cls-3, .cls-4, .cls-5, .cls-6, .cls-7, .cls-8 {
        fill: #fff;
      }

      .cls-9, .cls-10, .cls-11, .cls-12, .cls-13, .cls-14 {
        fill: #407bff;
      }

      .cls-15 {
        fill: #263238;
      }

      .cls-2, .cls-10, .cls-3, .cls-11, .cls-4, .cls-5, .cls-6, .cls-7, .cls-12, .cls-8, .cls-13, .cls-14, .cls-16 {
        isolation: isolate;
      }

      .cls-2, .cls-10, .cls-16 {
        opacity: .2;
      }

      .cls-3, .cls-11, .cls-17 {
        opacity: .3;
      }

      .cls-4 {
        opacity: .7;
      }

      .cls-5 {
        opacity: .8;
      }

      .cls-6 {
        opacity: .9;
      }

      .cls-7, .cls-12 {
        opacity: .5;
      }

      .cls-8, .cls-13 {
        opacity: .6;
      }

      .cls-14 {
        opacity: .4;
      }
    </style>
  </defs>
  <path class="cls-9" d="M33.04,78.2c-15.32,40.81-2.09,95.9,21.58,139,61,111.9,209.44,48.63,206.88-2.19,3.48-48.48-40.12-62.88-54.91-90.06C123.77-28.47,45.35,43.79,33.04,78.2Z"/>
  <path class="cls-6" d="M33.04,78.2c-15.32,40.81-2.09,95.9,21.58,139,61,111.9,209.44,48.63,206.88-2.19,3.48-48.48-40.12-62.88-54.91-90.06C123.77-28.47,45.35,43.79,33.04,78.2Z"/>
  <path class="cls-9" d="M76.03,219.96H15.18v-27.47l60.85-72.34h29.12v73.9h15.09v25.91h-15.09v22.48h-29.12v-22.48Zm0-25.91v-37.84l-32.16,37.84h32.16Zm54.62-12.22c0-22.86,4.11-38.86,12.34-48,8.23-9.14,20.76-13.71,37.61-13.7,8.09,0,14.73,1,19.93,3,4.72,1.7,9.05,4.35,12.71,7.79,3.09,2.95,5.7,6.35,7.75,10.09,2.03,3.91,3.56,8.05,4.55,12.34,2.26,9.16,3.39,18.56,3.36,28,0,21.81-3.69,37.78-11.07,47.89s-20.09,15.17-38.13,15.18c-10.12,0-18.3-1.61-24.53-4.84-6.28-3.28-11.58-8.18-15.33-14.19-2.9-4.43-5.16-10.48-6.77-18.17-1.67-8.36-2.49-16.87-2.42-25.39h0Zm33.14,.08c0,15.33,1.35,25.79,4.05,31.37s6.62,8.38,11.77,8.41c3.3,.04,6.48-1.25,8.82-3.57,2.49-2.38,4.33-6.14,5.5-11.28s1.76-13.14,1.76-24c0-15.96-1.35-26.69-4.06-32.19s-6.77-8.25-12.18-8.24c-5.52,0-9.52,2.8-12,8.41-2.48,5.61-3.7,15.97-3.66,31.09h0Zm136.3,38.05h-60.85v-27.47l60.85-72.34h29.12v73.9h15.14v25.91h-15.14v22.48h-29.12v-22.48Zm0-25.91v-37.84l-32.15,37.84h32.15Z"/>
  <g class="cls-17">
    <path class="cls-9" d="M129.35,77.94c0,1.03-.84,1.87-1.87,1.87s-1.87-.84-1.87-1.87c0-1.03,.84-1.87,1.87-1.87,0,0,0,0,0,0,1.03,0,1.86,.83,1.86,1.86,0,0,0,0,0,.01Z"/>
    <circle class="cls-9" cx="1.32" cy="148.45" r="1.32"/>
    <circle class="cls-9" cx="219.4" cy="340.65" r="1.89"/>
    <circle class="cls-9" cx="264.85" cy="264.32" r="1.32"/>
    <path class="cls-9" d="M352.52,27.94c0,.73-.59,1.32-1.32,1.32s-1.32-.59-1.32-1.32,.59-1.32,1.32-1.32,1.32,.59,1.32,1.32h0ZM101.1,1.32c0,.73-.59,1.32-1.32,1.32s-1.32-.59-1.32-1.32S99.05,0,99.78,0c.73,0,1.31,.59,1.32,1.32Z"/>
    <circle class="cls-9" cx="206.05" cy="69.26" r="1.32"/>
  </g>
  <circle class="cls-9" cx="69.58" cy="48.68" r="21.91"/>
  <circle class="cls-4" cx="69.58" cy="48.68" r="21.91"/>
  <path class="cls-10" d="M62.03,32.15c-2.98,0-5.94,.59-8.68,1.77-8.15,8.95-7.49,22.82,1.46,30.97,6.36,5.79,15.51,7.32,23.41,3.92,8.14-8.97,7.46-22.83-1.5-30.96-4.03-3.66-9.28-5.69-14.73-5.69h.04Z"/>
  <path class="cls-10" d="M59.85,37.94c0,1.1-.9,2-2,2s-2-.9-2-2,.9-2,2-2,2,.9,2,2Zm23.56-2c0,1.1-.9,2-2,2s-2-.9-2-2,.9-2,2-2,2,.9,2,2Zm-4,14.28c0,1.81-1.47,3.28-3.28,3.28s-3.28-1.47-3.28-3.28,1.47-3.28,3.28-3.28h0c1.81,0,3.28,1.47,3.28,3.28Zm-10.42,9.35c0,2.42-1.96,4.38-4.38,4.38s-4.38-1.96-4.38-4.38,1.96-4.38,4.38-4.38,4.38,1.96,4.38,4.38h0Z"/>
  <circle class="cls-9" cx="310.53" cy="308.55" r="19.23"/>
  <circle class="cls-3" cx="310.53" cy="308.55" r="19.23"/>
  <path class="cls-14" d="M322.68,293.66c-10.16-3.07-20.89,2.68-23.95,12.85-2.25,7.47,.23,15.56,6.28,20.47,1.79,.54,3.66,.82,5.53,.82,10.62,0,19.23-8.61,19.23-19.23,0-5.78-2.6-11.25-7.09-14.91h0Z"/>
  <path class="cls-9" d="M292.18,314.32c-20.53,9.66-5.22,17.11,23.71,6.71,26.79-9.63,37-21.77,13-18,1.29,5.05-32.26,18.12-36.71,11.29Z"/>
  <path class="cls-16" d="M322.45,120.15c-26.89,18.17-61.7,42.17-71.31,99.81h-2.05c9.35-57,42.89-81.57,69.79-99.81h3.57Z"/>
  <path class="cls-9" d="M183.35,300.59c-17,0-33.81-7.67-42-20.19-5.05-7.74-10.92-23.95,6.56-45.58l1.55,1.26c-12.36,15.3-14.64,30.65-6.43,43.23,10,15.3,33.59,23,53.73,17.52,20.63-5.61,33.15-23.55,34.36-49.22,4.13-87.81,50.78-114.86,84.84-134.61,21.17-12.27,36.46-21.13,33.1-39.84-.47-2.59-1.5-4.38-3.17-5.48-4.35-2.87-12.85-.88-22.69,1.41-19.31,4.5-45.75,10.66-61.5-16.13l1.73-1c15,25.53,39.57,19.8,59.32,15.2,10.29-2.39,19.17-4.46,24.24-1.13,2.15,1.41,3.47,3.64,4,6.8,3.61,20.08-13,29.72-34.05,41.92-33.67,19.52-79.77,46.25-83.85,133-1.26,26.6-14.32,45.21-35.84,51.06-4.53,1.21-9.21,1.81-13.9,1.78h0Z"/>
  <path class="cls-2" d="M183.35,300.59c-17,0-33.81-7.67-42-20.19-5.05-7.74-10.92-23.95,6.56-45.58l1.55,1.26c-12.36,15.3-14.64,30.65-6.43,43.23,10,15.3,33.59,23,53.73,17.52,20.63-5.61,33.15-23.55,34.36-49.22,4.13-87.81,50.78-114.86,84.84-134.61,21.17-12.27,36.46-21.13,33.1-39.84-.47-2.59-1.5-4.38-3.17-5.48-4.35-2.87-12.85-.88-22.69,1.41-19.31,4.5-45.75,10.66-61.5-16.13l1.73-1c15,25.53,39.57,19.8,59.32,15.2,10.29-2.39,19.17-4.46,24.24-1.13,2.15,1.41,3.47,3.64,4,6.8,3.61,20.08-13,29.72-34.05,41.92-33.67,19.52-79.77,46.25-83.85,133-1.26,26.6-14.32,45.21-35.84,51.06-4.53,1.21-9.21,1.81-13.9,1.78h0Z"/>
  <path class="cls-9" d="M241.11,29.32c4.61,.03,9.19,.74,13.58,2.13,0,0,11,18.77,12.3,23.07-.46,4.24-7.61,11.19-7.61,11.19l-18.27-36.39Z"/>
  <path class="cls-3" d="M241.11,29.32c4.61,.03,9.19,.74,13.58,2.13,0,0,11,18.77,12.3,23.07-.46,4.24-7.61,11.19-7.61,11.19l-18.27-36.39Z"/>
  <path class="cls-9" d="M273.69,120.45c-4.24-5.18-8.1-10.65-11.56-16.38-.84-1.45-1.64-2.92-2.39-4.42-.43-.85-.84-1.7-1.24-2.56-.52-.84-.93-1.74-1.21-2.69-1.2-12.67,3.14-22-1-32.17l-16.48,6.44s1.4,18.12,4.6,29c2,6.73,6.48,12.55,10.81,17.94,1.35,1.68,2.65,3.41,4,5.1s2.71,3.06,4,4.65c1.95,2.41,2.59,4.72,1.12,7.56l-.25,.45c-.42,.74,1.54,1.58,2.78,0,2-2.58,1.72-2.42,3.46-4.62,1.06-1.33,2.27-2.78,3.32-4,1.04-1.24,1.06-3.04,.04-4.3Z"/>
  <path class="cls-4" d="M273.69,120.45c-4.24-5.18-8.1-10.65-11.56-16.38-.84-1.45-1.64-2.92-2.39-4.42-.43-.85-.84-1.7-1.24-2.56-.52-.84-.93-1.74-1.21-2.69-1.2-12.67,3.14-22-1-32.17l-16.48,6.44s1.4,18.12,4.6,29c2,6.73,6.48,12.55,10.81,17.94,1.35,1.68,2.65,3.41,4,5.1s2.71,3.06,4,4.65c1.95,2.41,2.59,4.72,1.12,7.56l-.25,.45c-.42,.74,1.54,1.58,2.78,0,2-2.58,1.72-2.42,3.46-4.62,1.06-1.33,2.27-2.78,3.32-4,1.04-1.24,1.06-3.04,.04-4.3Z"/>
  <path class="cls-11" d="M269.66,115.24c-2.62,2.8-5.52,5.32-8.66,7.52,.43,.48,.85,1,1.28,1.46,3.15-2.13,6-4.65,8.5-7.51l-1.12-1.47Zm4.03,5.21l-.12-.14c-.77,.88-1.22,2-1.27,3.17-.06,.8,.07,1.61,.38,2.35l.95-1.13c1.02-1.22,1.05-3,.06-4.25h0Z"/>
  <path class="cls-9" d="M237.19,41.32c-1.79,2.68-3.93,5.09-6.37,7.19-1.35,1.17-2.84,2.17-4.42,3-.83,.43-1.69,.79-2.58,1.09l-.68,.22-.22,.06-.47,.13c-.29,.07-.58,.12-.88,.14-.84,.06-1.69-.01-2.51-.23-1.03-.29-2.02-.72-2.94-1.27-.74-.43-1.46-.9-2.15-1.41-1.25-.93-2.45-1.93-3.58-3-2.19-2.07-4.19-4.33-6-6.74-.82-1.11-.59-2.69,.53-3.51,.83-.61,1.95-.66,2.82-.11h.08c2.36,1.5,4.74,3.08,7.06,4.49,1.18,.69,2.32,1.39,3.45,1.93,.52,.27,1.05,.51,1.59,.72,.34,.15,.7,.24,1.07,.26,.06,0,0-.07-.37-.06-.12,0-.23,0-.35,0l-.22,.05,.33-.17c.44-.24,.88-.5,1.29-.79,.89-.63,1.73-1.34,2.5-2.12,1.75-1.83,3.38-3.76,4.9-5.79,1.84-2.06,5-2.24,7.06-.4,1.8,1.61,2.19,4.27,.94,6.33h.12Z"/>
  <path class="cls-4" d="M237.19,41.32c-1.79,2.68-3.93,5.09-6.37,7.19-1.35,1.17-2.84,2.17-4.42,3-.83,.43-1.69,.79-2.58,1.09l-.68,.22-.22,.06-.47,.13c-.29,.07-.58,.12-.88,.14-.84,.06-1.69-.01-2.51-.23-1.03-.29-2.02-.72-2.94-1.27-.74-.43-1.46-.9-2.15-1.41-1.25-.93-2.45-1.93-3.58-3-2.19-2.07-4.19-4.33-6-6.74-.82-1.11-.59-2.69,.53-3.51,.83-.61,1.95-.66,2.82-.11h.08c2.36,1.5,4.74,3.08,7.06,4.49,1.18,.69,2.32,1.39,3.45,1.93,.52,.27,1.05,.51,1.59,.72,.34,.15,.7,.24,1.07,.26,.06,0,0-.07-.37-.06-.12,0-.23,0-.35,0l-.22,.05,.33-.17c.44-.24,.88-.5,1.29-.79,.89-.63,1.73-1.34,2.5-2.12,1.75-1.83,3.38-3.76,4.9-5.79,1.84-2.06,5-2.24,7.06-.4,1.8,1.61,2.19,4.27,.94,6.33h.12Z"/>
  <path class="cls-9" d="M200.64,34.74l1.17,2s.89,2.62,2.68,3.1l4.86-1.57-.25-.41c-.62-.94-.55-2.77-.34-4.29s-.57-1.57-1.15-1.19c-.41,.47-.7,1.04-.84,1.65-.24-.33-.5-.64-.79-.93l-1.48-1.48c-.64-.63-1.66-.66-2.34-.06l-1.2,1.07c-.59,.54-.72,1.42-.32,2.11h0Z"/>
  <path class="cls-4" d="M200.64,34.74l1.17,2s.89,2.62,2.68,3.1l4.86-1.57-.25-.41c-.62-.94-.55-2.77-.34-4.29s-.57-1.57-1.15-1.19c-.41,.47-.7,1.04-.84,1.65-.24-.33-.5-.64-.79-.93l-1.48-1.48c-.64-.63-1.66-.66-2.34-.06l-1.2,1.07c-.59,.54-.72,1.42-.32,2.11h0Z"/>
  <path class="cls-9" d="M246.02,27.54c-5.39,1.43-10.55,3.61-15.34,6.47-1.53,.96-2.3,2.76-1.94,4.53,1.93,9.44,6.32,22.08,11.06,30.13l22.11-9.15c.15-3.9-5.22-16.52-10.69-28.72-.98-2.19-2.87-3.82-5.2-3.26h0Z"/>
  <path class="cls-5" d="M246.02,27.54c-5.39,1.43-10.55,3.61-15.34,6.47-1.53,.96-2.3,2.76-1.94,4.53,1.93,9.44,6.32,22.08,11.06,30.13l22.11-9.15c.15-3.9-5.22-16.52-10.69-28.72-.98-2.19-2.87-3.82-5.2-3.26h0Z"/>
  <path class="cls-11" d="M254.65,38.53l-4.39-1.47c1,2.57,4.53,5.82,7,7.73-.8-2-1.69-4.1-2.61-6.26Z"/>
  <path class="cls-9" d="M244.57,17.64c-1.83-3.48-5.78-5.23-10.52-4.84-4,.34-7.54,4.42-7.12,6.62s3.78,3.14,4.42,3.9l-2.77,2c-1.34,.97-1.65,2.84-.68,4.19,.02,.03,.05,.07,.08,.1,1.17,1.48,2.71,3,3.6,4.12,7.66-.2,13.33-3.12,15.38-5.93-.77-3.56-.61-6.7-2.39-10.16h0Z"/>
  <path class="cls-5" d="M244.57,17.64c-1.83-3.48-5.78-5.23-10.52-4.84-4,.34-7.54,4.42-7.12,6.62s3.78,3.14,4.42,3.9l-2.77,2c-1.34,.97-1.65,2.84-.68,4.19,.02,.03,.05,.07,.08,.1,1.17,1.48,2.71,3,3.6,4.12,7.66-.2,13.33-3.12,15.38-5.93-.77-3.56-.61-6.7-2.39-10.16h0Z"/>
  <path class="cls-15" d="M240.81,19.8c1.52,3.9-.41,8.28-4.3,9.8-3.9,1.52-8.28-.41-9.8-4.3-1.52-3.89,.4-8.28,4.3-9.8,3.9-1.52,8.29,.41,9.81,4.3Z"/>
  <path class="cls-9" d="M305.74,109.92c-.11-3.29-.26-3-.35-5.77-.06-1.7-.07-3.59-.08-5.22,0-1.6-1.14-2.97-2.7-3.28-1.32-.27-2.65-.52-4-.8-1.73-.37-3.44-.77-5.13-1.26-1.32-.38-2.62-.8-3.91-1.27s-2.74-1-4.08-1.62c-1.58-.67-3.14-1.39-4.68-2.14-1.73-.82-3.44-1.68-5.15-2.55-6.58-10.89-6.72-18.07-13.78-26.49l-15.16,6.86s11.14,19.76,18.72,28.14c4.37,4.82,11.22,7,17.33,8.58,4.41,1.13,8.88,2,13.35,2.83,1.74,.32,3.63,.44,5.13,1.48,1.11,.85,1.87,2.08,2.14,3.45,.07,.28,.13,.56,.18,.84,.19,.84,2.24,.2,2.17-1.78h0Z"/>
  <path class="cls-5" d="M305.74,109.92c-.11-3.29-.26-3-.35-5.77-.06-1.7-.07-3.59-.08-5.22,0-1.6-1.14-2.97-2.7-3.28-1.32-.27-2.65-.52-4-.8-1.73-.37-3.44-.77-5.13-1.26-1.32-.38-2.62-.8-3.91-1.27s-2.74-1-4.08-1.62c-1.58-.67-3.14-1.39-4.68-2.14-1.73-.82-3.44-1.68-5.15-2.55-6.58-10.89-6.72-18.07-13.78-26.49l-15.16,6.86s11.14,19.76,18.72,28.14c4.37,4.82,11.22,7,17.33,8.58,4.41,1.13,8.88,2,13.35,2.83,1.74,.32,3.63,.44,5.13,1.48,1.11,.85,1.87,2.08,2.14,3.45,.07,.28,.13,.56,.18,.84,.19,.84,2.24,.2,2.17-1.78h0Z"/>
  <path class="cls-11" d="M298.05,94.72c-.6-.13-1.2-.26-1.81-.41,.05,3.46-1.57,9.42-2.16,11.23l1.9,.36c1.25-3.6,1.94-7.37,2.07-11.18Zm7.3,4.21c0-1.59-1.13-2.96-2.69-3.28l-1-.19c.16,1.14,.74,2.17,1.63,2.9,.57,.53,1.26,.92,2,1.14,.06-.18,.06-.38,.06-.57h0Z"/>
  <path class="cls-1" d="M239.4,19.86c.4,1.52-1.3,3.11-2.65,1.8-1.26-1.35-2.64-2.59-4.12-3.69-1.39-.87,.46-2.39,2.65-1.8,1.9,.48,3.44,1.86,4.12,3.69Z"/>
  <path class="cls-9" d="M239.51,68.18c-.7,.26,.58,1.46,.58,1.46,0,0,14-4.79,22.5-9.72,.04-.61-.21-1.19-.68-1.58-7.27,3.7-14.75,6.99-22.4,9.84Z"/>
  <path class="cls-7" d="M239.51,68.18c-.7,.26,.58,1.46,.58,1.46,0,0,14-4.79,22.5-9.72,.04-.61-.21-1.19-.68-1.58-7.27,3.7-14.75,6.99-22.4,9.84Z"/>
  <path class="cls-9" d="M249.81,26.88c2.76,1.4,5.35,2.87,8,4.5,1.29,.82,2.57,1.65,3.84,2.55s2.53,1.82,3.8,2.86l.47,.39,.59,.54c.35,.31,.69,.65,1,1,.32,.35,.59,.69,.85,1s.54,.68,.77,1c.93,1.29,1.79,2.62,2.58,4,1.55,2.67,2.89,5.47,4,8.35,.49,1.3-.17,2.76-1.47,3.25-.95,.36-2.02,.11-2.72-.63l-.05-.06c-2-2.13-3.93-4.37-5.87-6.46s-3.91-4.21-5.54-5.14c-2.27-1.41-4.8-2.82-7.31-4.2l-7.56-4.2c-2.44-1.29-3.37-4.32-2.08-6.76,1.29-2.44,4.32-3.37,6.76-2.08l-.06,.09Z"/>
  <path class="cls-5" d="M249.81,26.88c2.76,1.4,5.35,2.87,8,4.5,1.29,.82,2.57,1.65,3.84,2.55s2.53,1.82,3.8,2.86l.47,.39,.59,.54c.35,.31,.69,.65,1,1,.32,.35,.59,.69,.85,1s.54,.68,.77,1c.93,1.29,1.79,2.62,2.58,4,1.55,2.67,2.89,5.47,4,8.35,.49,1.3-.17,2.76-1.47,3.25-.95,.36-2.02,.11-2.72-.63l-.05-.06c-2-2.13-3.93-4.37-5.87-6.46s-3.91-4.21-5.54-5.14c-2.27-1.41-4.8-2.82-7.31-4.2l-7.56-4.2c-2.44-1.29-3.37-4.32-2.08-6.76,1.29-2.44,4.32-3.37,6.76-2.08l-.06,.09Z"/>
  <path class="cls-9" d="M278.08,58.06l-.85-2.13s-.47-2.72-2.16-3.48l-5,.79,.17,.44c.46,1,.11,2.83-.34,4.29s.31,1.65,.95,1.36c.36-.16,.71-.81,1.09-1.5,.19,.35,.4,.68,.63,1l1.23,1.69c.53,.73,1.54,.92,2.3,.44l1.36-.87c.66-.45,.91-1.29,.62-2.03Z"/>
  <path class="cls-5" d="M278.08,58.06l-.85-2.13s-.47-2.72-2.16-3.48l-5,.79,.17,.44c.46,1,.11,2.83-.34,4.29s.31,1.65,.95,1.36c.36-.16,.71-.81,1.09-1.5,.19,.35,.4,.68,.63,1l1.23,1.69c.53,.73,1.54,.92,2.3,.44l1.36-.87c.66-.45,.91-1.29,.62-2.03Z"/>
  <path class="cls-11" d="M245.59,38.38l-1.22,.1-7.49,18.08c.41,.03,.82,0,1.22-.1,0,0,9.76-3.64,12.71-5-1.98-4.09-5.22-13.08-5.22-13.08Z"/>
  <path class="cls-1" d="M231.92,43.12c.91,4.73,2.6,9.27,5,13.44,3.66-1.26,9.76-3.64,12.72-5-1.99-4.27-3.76-8.63-5.29-13.08-3.13,.21-10,2.84-12.43,4.64Z"/>
  <path class="cls-11" d="M239.35,47.03c-.41,1.37-1.85,2.14-3.21,1.73-1.37-.41-2.14-1.85-1.73-3.21s1.85-2.14,3.21-1.73c0,0,0,0,0,0,1.36,.41,2.14,1.85,1.73,3.21Z"/>
  <path class="cls-13" d="M241.26,43.59c-.11,.46-.56,.74-1.02,.63-.46-.11-.74-.56-.63-1.02,.11-.46,.56-.74,1.02-.63,.03,0,.05,.01,.07,.02,.42,.13,.67,.57,.56,1Zm2.24-.87c-.09,.46-.54,.76-1,.66-.46-.09-.76-.54-.66-1,.01-.05,.03-.1,.05-.15,.13-.44,.6-.7,1.05-.56,0,0,0,0,0,0,.45,.13,.7,.6,.57,1.05Z"/>
  <path class="cls-12" d="M246.64,50.51l-9.25,3.65-.55-1.82,9.24-3.65,.56,1.82Z"/>
  <path class="cls-16" d="M195.61,189.49c-.02,5.82-.58,11.63-1.68,17.35-1.18,5.14-3.01,8.9-5.5,11.28-2.34,2.32-5.51,3.61-8.81,3.57-5.14,0-9.06-2.8-11.77-8.41-.48-1.01-.88-2.05-1.21-3.11-5.72,4.91-11.04,10.26-15.92,16l-5.31,6.26c2.86,2.9,6.15,5.32,9.77,7.19,6.23,3.22,14.4,4.83,24.52,4.84,1.78,0,3.5-.05,5.17-.15,6.12-9.06,11.19-18.79,15.1-29l14.85-38.72-19.21,12.9Z"/>
  <path class="cls-15" d="M61.74,242.32l17.5,17.5,49-46.17c-16.89-6.45-49.73,11.86-66.5,28.67h0Zm61.03,61c-5.59-5.6-17.5-17.5-17.5-17.5l46.17-49c6.41,16.85-11.9,49.72-28.67,66.5Z"/>
  <path class="cls-9" d="M189.75,193.02l19.09-36.81-36.81,19.11c-11.82,6.13-22.74,13.87-32.44,23l-62.75,59.07,30.83,30.83,59.07-62.75c9.13-9.7,16.88-20.62,23.01-32.45h0Z"/>
  <path class="cls-8" d="M189.75,193.02l19.09-36.81-36.81,19.11c-11.82,6.13-22.74,13.87-32.44,23l-62.75,59.07,30.83,30.83,59.07-62.75c9.13-9.7,16.88-20.62,23.01-32.45h0Z"/>
  <circle class="cls-1" cx="150.55" cy="214.5" r="12.9"/>
  <circle class="cls-9" cx="150.55" cy="214.5" r="8.29"/>
  <path class="cls-11" d="M118.1,277.14l-30.19-30.19,24.72-23.26,28.73,28.74-23.26,24.71h0Z"/>
  <path class="cls-9" d="M68.57,269.94c-22.6,1.83-30.09,16.3-32.65,35.53-1.3,9.81-1.88,19.74-10.11,25.48-1.27,.86-1.59,2.58-.73,3.85,.53,.78,1.42,1.24,2.36,1.21,30.34-.95,44.49-15.8,46.27-22-.47,3.24-1.3,6.42-2.49,9.47-.57,1.41,.11,3.02,1.52,3.59,.81,.33,1.73,.25,2.48-.2,8.51-5.33,19.19-15.15,19.9-31.08-6.26-8.87-26.55-25.85-26.55-25.85h0Z"/>
  <path class="cls-2" d="M68.57,269.94c-22.6,1.83-30.09,16.3-32.65,35.53-1.3,9.81-1.88,19.74-10.11,25.48-1.27,.86-1.59,2.58-.73,3.85,.53,.78,1.42,1.24,2.36,1.21,30.34-.95,44.49-15.8,46.27-22-.47,3.24-1.3,6.42-2.49,9.47-.57,1.41,.11,3.02,1.52,3.59,.81,.33,1.73,.25,2.48-.2,8.51-5.33,19.19-15.15,19.9-31.08-6.26-8.87-26.55-25.85-26.55-25.85h0Z"/>
  <path class="cls-9" d="M98.63,302.62l-36.2-36.2,19.28-4.17,21.09,21.09-4.17,19.28h0Z"/>
</svg>